<svg width="100" height="80" viewBox="0 0 100 80" fill="none" xmlns="http://www.w3.org/2000/svg">
    <g filter="url(#filter0_d_0_1)">
        <path
            d="M6.93182 49.2727V58H4.5625V49.2727H6.93182ZM11.2422 58.1193C10.532 58.1193 9.92401 57.9787 9.41832 57.6974C8.91264 57.4134 8.52486 57.0185 8.25497 56.5128C7.98509 56.0043 7.85014 55.4148 7.85014 54.7443C7.85014 54.0739 7.98509 53.4858 8.25497 52.9801C8.52486 52.4716 8.91264 52.0767 9.41832 51.7955C9.92401 51.5114 10.532 51.3693 11.2422 51.3693C11.8842 51.3693 12.4396 51.4858 12.9084 51.7188C13.38 51.9489 13.745 52.2756 14.0036 52.6989C14.2621 53.1193 14.3928 53.6136 14.3956 54.1818H12.2138C12.1825 53.8381 12.0831 53.5767 11.9155 53.3977C11.7507 53.2159 11.5376 53.125 11.2763 53.125C11.0717 53.125 10.8928 53.1847 10.7393 53.304C10.5859 53.4205 10.4666 53.598 10.3814 53.8366C10.2962 54.0724 10.2536 54.3693 10.2536 54.7273C10.2536 55.0852 10.2962 55.3835 10.3814 55.6222C10.4666 55.858 10.5859 56.0355 10.7393 56.1548C10.8928 56.2713 11.0717 56.3295 11.2763 56.3295C11.4496 56.3295 11.603 56.2898 11.7365 56.2102C11.87 56.1278 11.978 56.0085 12.0604 55.8523C12.1456 55.6932 12.1967 55.5 12.2138 55.2727H14.3956C14.3871 55.8494 14.255 56.3523 13.9993 56.7812C13.7436 57.2074 13.3814 57.5369 12.9126 57.7699C12.4467 58.0028 11.8899 58.1193 11.2422 58.1193ZM18.5025 58.1193C17.8036 58.1193 17.2013 57.9858 16.6957 57.7188C16.1928 57.4489 15.805 57.0625 15.5323 56.5597C15.2624 56.054 15.1275 55.4489 15.1275 54.7443C15.1275 54.0682 15.2638 53.4773 15.5366 52.9716C15.8093 52.4659 16.1942 52.0724 16.6914 51.7912C17.1886 51.5099 17.7752 51.3693 18.4513 51.3693C18.9457 51.3693 19.3931 51.446 19.7937 51.5994C20.1942 51.7528 20.5366 51.9759 20.8207 52.2685C21.1048 52.5582 21.3235 52.9105 21.4769 53.3253C21.6303 53.7401 21.707 54.2074 21.707 54.7273V55.2727H15.8604V53.9773H19.5423C19.5394 53.7898 19.4911 53.625 19.3974 53.483C19.3065 53.3381 19.1829 53.2259 19.0266 53.1463C18.8732 53.0639 18.6985 53.0227 18.5025 53.0227C18.3121 53.0227 18.1374 53.0639 17.9783 53.1463C17.8192 53.2259 17.6914 53.3366 17.5948 53.4787C17.5011 53.6207 17.4513 53.7869 17.4457 53.9773V55.375C17.4457 55.5852 17.4897 55.7727 17.5778 55.9375C17.6658 56.1023 17.7923 56.2315 17.957 56.3253C18.1218 56.419 18.3207 56.4659 18.5536 56.4659C18.7156 56.4659 18.8633 56.4432 18.9968 56.3977C19.1332 56.3523 19.2496 56.2869 19.3462 56.2017C19.4428 56.1136 19.5138 56.0085 19.5593 55.8864H21.707C21.6332 56.3409 21.4585 56.7358 21.1829 57.071C20.9073 57.4034 20.5423 57.6619 20.0877 57.8466C19.636 58.0284 19.1076 58.1193 18.5025 58.1193ZM30.7805 52.5455H28.3771C28.3601 52.3466 28.3146 52.1662 28.2408 52.0043C28.1697 51.8423 28.0703 51.7031 27.9425 51.5866C27.8175 51.4673 27.6655 51.3764 27.4865 51.3139C27.3075 51.2486 27.1044 51.2159 26.8771 51.2159C26.4794 51.2159 26.1428 51.3125 25.8672 51.5057C25.5945 51.6989 25.3871 51.9759 25.245 52.3366C25.1058 52.6974 25.0362 53.1307 25.0362 53.6364C25.0362 54.1705 25.1072 54.6179 25.2493 54.9787C25.3942 55.3366 25.603 55.6065 25.8757 55.7884C26.1484 55.9673 26.4766 56.0568 26.8601 56.0568C27.0788 56.0568 27.2749 56.0298 27.4482 55.9759C27.6214 55.919 27.772 55.8381 27.8999 55.733C28.0277 55.6278 28.1314 55.5014 28.2109 55.3537C28.2933 55.2031 28.3487 55.0341 28.3771 54.8466L30.7805 54.8636C30.7521 55.233 30.6484 55.6094 30.4695 55.9929C30.2905 56.3736 30.0362 56.7259 29.7067 57.0497C29.38 57.3707 28.9751 57.6293 28.4922 57.8253C28.0092 58.0213 27.4482 58.1193 26.8089 58.1193C26.0078 58.1193 25.2891 57.9474 24.6527 57.6037C24.0192 57.2599 23.5178 56.7543 23.1484 56.0866C22.782 55.419 22.5987 54.6023 22.5987 53.6364C22.5987 52.6648 22.7862 51.8466 23.1612 51.1818C23.5362 50.5142 24.0419 50.0099 24.6783 49.669C25.3146 49.3253 26.0249 49.1534 26.8089 49.1534C27.3601 49.1534 27.8672 49.2287 28.3303 49.3793C28.7933 49.5298 29.1996 49.75 29.549 50.0398C29.8984 50.3267 30.1797 50.6804 30.3928 51.1009C30.6058 51.5213 30.7351 52.0028 30.7805 52.5455ZM36.1339 55.1364V51.4545H38.4862V58H36.2532V56.7557H36.185C36.043 57.1733 35.7944 57.5 35.4393 57.7358C35.0842 57.9687 34.6623 58.0852 34.1737 58.0852C33.7163 58.0852 33.3157 57.9801 32.9719 57.7699C32.631 57.5597 32.3654 57.2699 32.1751 56.9006C31.9876 56.5312 31.8924 56.108 31.8896 55.6307V51.4545H34.2418V55.1364C34.2447 55.4602 34.3271 55.7145 34.489 55.8991C34.6538 56.0838 34.8839 56.1761 35.1793 56.1761C35.3754 56.1761 35.5444 56.1349 35.6864 56.0526C35.8313 55.9673 35.9421 55.848 36.0188 55.6946C36.0984 55.5384 36.1367 55.3523 36.1339 55.1364ZM39.6484 58V49.2727H42.0007V52.5966H42.0348C42.12 52.375 42.245 52.1719 42.4098 51.9872C42.5746 51.7997 42.7791 51.6506 43.0234 51.5398C43.2678 51.4261 43.5518 51.3693 43.8757 51.3693C44.3075 51.3693 44.718 51.4844 45.1072 51.7145C45.4993 51.9446 45.8175 52.3068 46.0618 52.8011C46.3089 53.2955 46.4325 53.9375 46.4325 54.7273C46.4325 55.483 46.3146 56.1094 46.0788 56.6065C45.8459 57.1037 45.5334 57.4744 45.1413 57.7188C44.7521 57.9631 44.3246 58.0852 43.8587 58.0852C43.5518 58.0852 43.2777 58.0355 43.0362 57.9361C42.7976 57.8338 42.593 57.696 42.4226 57.5227C42.255 57.3466 42.1257 57.1477 42.0348 56.9261H41.9837V58H39.6484ZM41.9496 54.7273C41.9496 55.0455 41.9908 55.321 42.0732 55.554C42.1584 55.7841 42.2777 55.9631 42.4311 56.0909C42.5874 56.2159 42.7734 56.2784 42.9893 56.2784C43.2053 56.2784 43.3885 56.2173 43.5391 56.0952C43.6925 55.9702 43.8089 55.7926 43.8885 55.5625C43.9709 55.3295 44.0121 55.0511 44.0121 54.7273C44.0121 54.4034 43.9709 54.1264 43.8885 53.8963C43.8089 53.6634 43.6925 53.4858 43.5391 53.3636C43.3885 53.2386 43.2053 53.1761 42.9893 53.1761C42.7734 53.1761 42.5874 53.2386 42.4311 53.3636C42.2777 53.4858 42.1584 53.6634 42.0732 53.8963C41.9908 54.1264 41.9496 54.4034 41.9496 54.7273ZM50.5533 58.1193C49.8544 58.1193 49.2521 57.9858 48.7464 57.7188C48.2436 57.4489 47.8558 57.0625 47.5831 56.5597C47.3132 56.054 47.1783 55.4489 47.1783 54.7443C47.1783 54.0682 47.3146 53.4773 47.5874 52.9716C47.8601 52.4659 48.245 52.0724 48.7422 51.7912C49.2393 51.5099 49.826 51.3693 50.5021 51.3693C50.9964 51.3693 51.4439 51.446 51.8445 51.5994C52.245 51.7528 52.5874 51.9759 52.8714 52.2685C53.1555 52.5582 53.3743 52.9105 53.5277 53.3253C53.6811 53.7401 53.7578 54.2074 53.7578 54.7273V55.2727H47.9112V53.9773H51.593C51.5902 53.7898 51.5419 53.625 51.4482 53.483C51.3572 53.3381 51.2337 53.2259 51.0774 53.1463C50.924 53.0639 50.7493 53.0227 50.5533 53.0227C50.3629 53.0227 50.1882 53.0639 50.0291 53.1463C49.87 53.2259 49.7422 53.3366 49.6456 53.4787C49.5518 53.6207 49.5021 53.7869 49.4964 53.9773V55.375C49.4964 55.5852 49.5405 55.7727 49.6286 55.9375C49.7166 56.1023 49.843 56.2315 50.0078 56.3253C50.1726 56.419 50.3714 56.4659 50.6044 56.4659C50.7663 56.4659 50.9141 56.4432 51.0476 56.3977C51.1839 56.3523 51.3004 56.2869 51.397 56.2017C51.4936 56.1136 51.5646 56.0085 51.6101 55.8864H53.7578C53.6839 56.3409 53.5092 56.7358 53.2337 57.071C52.9581 57.4034 52.593 57.6619 52.1385 57.8466C51.6868 58.0284 51.1584 58.1193 50.5533 58.1193ZM60.4322 58H57.0742V49.2727H60.3981C61.2958 49.2727 62.0714 49.4474 62.7248 49.7969C63.381 50.1435 63.8867 50.6435 64.2418 51.2969C64.5998 51.9474 64.7788 52.7273 64.7788 53.6364C64.7788 54.5455 64.6012 55.3267 64.2461 55.9801C63.891 56.6307 63.3881 57.1307 62.7376 57.4801C62.087 57.8267 61.3185 58 60.4322 58ZM59.4435 55.9886H60.3469C60.7788 55.9886 61.1467 55.919 61.4506 55.7798C61.7575 55.6406 61.9904 55.4006 62.1495 55.0597C62.3114 54.7187 62.3924 54.2443 62.3924 53.6364C62.3924 53.0284 62.31 52.554 62.1452 52.2131C61.9833 51.8722 61.7447 51.6321 61.4293 51.4929C61.1168 51.3537 60.7333 51.2841 60.2788 51.2841H59.4435V55.9886ZM65.9091 58V51.4545H68.2614V58H65.9091ZM67.0852 50.7727C66.767 50.7727 66.4943 50.6676 66.267 50.4574C66.0398 50.2472 65.9261 49.9943 65.9261 49.6989C65.9261 49.4034 66.0398 49.1506 66.267 48.9403C66.4943 48.7301 66.767 48.625 67.0852 48.625C67.4063 48.625 67.679 48.7301 67.9034 48.9403C68.1307 49.1506 68.2443 49.4034 68.2443 49.6989C68.2443 49.9943 68.1307 50.2472 67.9034 50.4574C67.679 50.6676 67.4063 50.7727 67.0852 50.7727ZM72.6133 60.5909C71.957 60.5909 71.3945 60.4972 70.9258 60.3097C70.4599 60.125 70.0977 59.8693 69.8391 59.5426C69.5835 59.2188 69.44 58.8466 69.4087 58.4261H71.6758C71.6985 58.5653 71.7553 58.6776 71.8462 58.7628C71.9371 58.848 72.0536 58.9091 72.1957 58.946C72.3406 58.9858 72.5025 59.0057 72.6815 59.0057C72.9854 59.0057 73.2369 58.9318 73.4357 58.7841C73.6374 58.6364 73.7383 58.3693 73.7383 57.983V56.875H73.6701C73.5849 57.0966 73.4542 57.2855 73.2781 57.4418C73.1019 57.5952 72.8903 57.7131 72.6431 57.7955C72.396 57.875 72.1246 57.9148 71.8292 57.9148C71.3633 57.9148 70.9343 57.8068 70.5423 57.5909C70.1531 57.375 69.8406 57.0327 69.6048 56.5639C69.3718 56.0952 69.2553 55.483 69.2553 54.7273C69.2553 53.9375 69.3775 53.2955 69.6218 52.8011C69.869 52.3068 70.1871 51.9446 70.5763 51.7145C70.9684 51.4844 71.3803 51.3693 71.8121 51.3693C72.136 51.3693 72.4201 51.4261 72.6644 51.5398C72.9087 51.6506 73.1133 51.7997 73.2781 51.9872C73.4428 52.1719 73.5678 52.375 73.6531 52.5966H73.7042V51.4545H76.0565V57.983C76.0565 58.5369 75.913 59.0071 75.6261 59.3935C75.342 59.7827 74.9414 60.0795 74.4244 60.2841C73.9073 60.4886 73.3036 60.5909 72.6133 60.5909ZM72.6985 56.2443C72.9144 56.2443 73.0991 56.1847 73.2525 56.0653C73.4087 55.9432 73.5281 55.7699 73.6104 55.5455C73.6957 55.3182 73.7383 55.0455 73.7383 54.7273C73.7383 54.4034 73.6957 54.1264 73.6104 53.8963C73.5281 53.6634 73.4087 53.4858 73.2525 53.3636C73.0991 53.2386 72.9144 53.1761 72.6985 53.1761C72.4826 53.1761 72.2979 53.2386 72.1445 53.3636C71.994 53.4858 71.8775 53.6634 71.7951 53.8963C71.7156 54.1264 71.6758 54.4034 71.6758 54.7273C71.6758 55.0511 71.7156 55.3267 71.7951 55.554C71.8775 55.7784 71.994 55.9503 72.1445 56.0696C72.2979 56.1861 72.4826 56.2443 72.6985 56.2443ZM77.2528 58V51.4545H79.6051V58H77.2528ZM78.429 50.7727C78.1108 50.7727 77.8381 50.6676 77.6108 50.4574C77.3835 50.2472 77.2699 49.9943 77.2699 49.6989C77.2699 49.4034 77.3835 49.1506 77.6108 48.9403C77.8381 48.7301 78.1108 48.625 78.429 48.625C78.75 48.625 79.0227 48.7301 79.2472 48.9403C79.4744 49.1506 79.5881 49.4034 79.5881 49.6989C79.5881 49.9943 79.4744 50.2472 79.2472 50.4574C79.0227 50.6676 78.75 50.7727 78.429 50.7727ZM84.707 51.4545V53.1591H80.3945V51.4545H84.707ZM81.2298 49.8864H83.582V55.8949C83.582 55.9858 83.5977 56.0625 83.6289 56.125C83.6602 56.1847 83.7085 56.2301 83.7738 56.2614C83.8391 56.2898 83.9229 56.304 84.0252 56.304C84.0962 56.304 84.1786 56.2955 84.2724 56.2784C84.369 56.2614 84.44 56.2472 84.4854 56.2358L84.8263 57.8892C84.7212 57.9205 84.5707 57.9588 84.3746 58.0043C84.1815 58.0497 83.9513 58.0795 83.6843 58.0938C83.1445 58.1222 82.6914 58.0668 82.3249 57.9276C81.9585 57.7855 81.6829 57.5625 81.4982 57.2585C81.3136 56.9545 81.2241 56.5739 81.2298 56.1165V49.8864ZM87.4908 58.1023C87.0732 58.1023 86.7038 58.0341 86.3828 57.8977C86.0646 57.7585 85.8146 57.5483 85.6328 57.267C85.451 56.9858 85.3601 56.6278 85.3601 56.1932C85.3601 55.8352 85.4212 55.5298 85.5433 55.277C85.6655 55.0213 85.8359 54.8125 86.0547 54.6506C86.2734 54.4886 86.5277 54.3651 86.8175 54.2798C87.1101 54.1946 87.4254 54.1392 87.7635 54.1136C88.13 54.0852 88.424 54.0511 88.6456 54.0114C88.87 53.9687 89.032 53.9105 89.1314 53.8366C89.2308 53.7599 89.2805 53.6591 89.2805 53.5341V53.517C89.2805 53.3466 89.2152 53.2159 89.0845 53.125C88.9538 53.0341 88.7862 52.9886 88.5817 52.9886C88.3572 52.9886 88.174 53.0384 88.032 53.1378C87.8928 53.2344 87.8089 53.3835 87.7805 53.5852H85.6158C85.6442 53.1875 85.7706 52.821 85.995 52.4858C86.2223 52.1477 86.5533 51.8778 86.9879 51.6761C87.4226 51.4716 87.9652 51.3693 88.6158 51.3693C89.0845 51.3693 89.505 51.4247 89.8771 51.5355C90.2493 51.6435 90.5661 51.7955 90.8274 51.9915C91.0888 52.1847 91.2876 52.4119 91.424 52.6733C91.5632 52.9318 91.6328 53.2131 91.6328 53.517V58H89.4339V57.0795H89.3828C89.2521 57.3239 89.093 57.5213 88.9055 57.6719C88.7209 57.8224 88.5092 57.9318 88.2706 58C88.0348 58.0682 87.7749 58.1023 87.4908 58.1023ZM88.2578 56.6193C88.4368 56.6193 88.6044 56.5824 88.7607 56.5085C88.9197 56.4347 89.049 56.3281 89.1484 56.1889C89.2479 56.0497 89.2976 55.8807 89.2976 55.6818V55.1364C89.2351 55.1619 89.1683 55.1861 89.0973 55.2088C89.0291 55.2315 88.9553 55.2528 88.8757 55.2727C88.799 55.2926 88.7166 55.3111 88.6286 55.3281C88.5433 55.3452 88.4538 55.3608 88.3601 55.375C88.1783 55.4034 88.0291 55.4503 87.9126 55.5156C87.799 55.5781 87.7138 55.6562 87.657 55.75C87.603 55.8409 87.576 55.9432 87.576 56.0568C87.576 56.2386 87.6399 56.3778 87.7678 56.4744C87.8956 56.571 88.0589 56.6193 88.2578 56.6193ZM95.109 49.2727V58H92.7567V49.2727H95.109Z"
            fill="#AB7F4B" />
    </g>
    <path d="M45.5 0L67.5836 43.5H23.4164L45.5 0Z" fill="url(#paint0_radial_0_1)"
        fill-opacity="0.87" />
    <defs>
        <filter id="filter0_d_0_1" x="0.5625" y="48.625" width="98.5465" height="19.9659"
            filterUnits="userSpaceOnUse" color-interpolation-filters="sRGB">
            <feFlood flood-opacity="0" result="BackgroundImageFix" />
            <feColorMatrix in="SourceAlpha" type="matrix"
                values="0 0 0 0 0 0 0 0 0 0 0 0 0 0 0 0 0 0 127 0" result="hardAlpha" />
            <feOffset dy="4" />
            <feGaussianBlur stdDeviation="2" />
            <feComposite in2="hardAlpha" operator="out" />
            <feColorMatrix type="matrix" values="0 0 0 0 0 0 0 0 0 0 0 0 0 0 0 0 0 0 0.25 0" />
            <feBlend mode="normal" in2="BackgroundImageFix" result="effect1_dropShadow_0_1" />
            <feBlend mode="normal" in="SourceGraphic" in2="effect1_dropShadow_0_1" result="shape" />
        </filter>
        <radialGradient id="paint0_radial_0_1" cx="0" cy="0" r="1" gradientUnits="userSpaceOnUse"
            gradientTransform="translate(45.5 29) rotate(90) scale(29 25.5)">
            <stop stop-color="#AB7F4B" />
            <stop offset="0.973958" stop-color="#CCFFFC" stop-opacity="0.192708" />
            <stop offset="1" stop-color="#CCFFFC" stop-opacity="0" />
        </radialGradient>
    </defs>
</svg>
    